<svg width="25" height="25" viewBox="0 0 25 25" fill="none" xmlns="http://www.w3.org/2000/svg">
<g clip-path="url(#clip0)">
<path d="M24.375 10.825C24.3742 10.8244 24.3736 10.8237 24.3731 10.8231L14.175 0.625421C13.7403 0.190545 13.1624 -0.0488281 12.5477 -0.0488281C11.9329 -0.0488281 11.355 0.190545 10.9201 0.625421L0.727414 10.8179C0.72398 10.8214 0.720356 10.825 0.717114 10.8284C-0.175527 11.7262 -0.174001 13.1829 0.721501 14.0784C1.13063 14.4877 1.67079 14.7246 2.24853 14.7496C2.27218 14.7518 2.29583 14.753 2.31967 14.753H2.72594V22.2577C2.72594 23.7429 3.93444 24.9512 5.41969 24.9512H9.40949C9.81404 24.9512 10.1419 24.6232 10.1419 24.2188V18.335C10.1419 17.6573 10.6933 17.1061 11.371 17.1061H13.7243C14.402 17.1061 14.9532 17.6573 14.9532 18.335V24.2188C14.9532 24.6232 15.2811 24.9512 15.6856 24.9512H19.6754C21.1609 24.9512 22.3692 23.7429 22.3692 22.2577V14.753H22.7461C23.3606 14.753 23.9386 14.5136 24.3736 14.0786C25.2701 13.1817 25.2705 11.7224 24.375 10.825ZM23.3377 13.0429C23.1796 13.201 22.9694 13.2881 22.7461 13.2881H21.6368C21.2322 13.2881 20.9043 13.616 20.9043 14.0206V22.2577C20.9043 22.9352 20.3531 23.4864 19.6754 23.4864H16.4181V18.335C16.4181 16.8497 15.2098 15.6412 13.7243 15.6412H11.371C9.88557 15.6412 8.67707 16.8497 8.67707 18.335V23.4864H5.41969C4.7422 23.4864 4.19079 22.9352 4.19079 22.2577V14.0206C4.19079 13.616 3.86291 13.2881 3.45836 13.2881H2.36812C2.35667 13.2874 2.34542 13.2868 2.33379 13.2866C2.11559 13.2828 1.91093 13.1962 1.75758 13.0427C1.43142 12.7165 1.43142 12.1857 1.75758 11.8593C1.75777 11.8593 1.75777 11.8592 1.75796 11.859L1.75853 11.8584L11.9562 1.66111C12.1141 1.50299 12.3241 1.41602 12.5477 1.41602C12.771 1.41602 12.981 1.50299 13.1391 1.66111L23.3345 11.8563C23.336 11.8578 23.3377 11.8593 23.3393 11.8609C23.6637 12.1876 23.6631 12.7173 23.3377 13.0429Z" fill="white"/>
<path d="M3.57143 21.1309C3.09524 25.1785 7.34127 24.8016 9.52381 24.1071L9.22617 19.0476L9.52381 17.5595L11.3095 16.6666L14.5833 16.369L15.4762 18.1547L15.7738 24.4047H20.5357L21.4285 23.2143V14.8809L22.0238 13.6904L24.4047 13.3928L24.1071 11.6071L13.3928 0.892822H11.9047L0.595215 12.2023L1.78569 13.6904L3.27379 14.2857L3.57143 21.1309Z" fill="white"/>
</g>
<defs>
<clipPath id="clip0">
<rect width="25" height="25" fill="white"/>
</clipPath>
</defs>
</svg>
