<svg width="25" height="25" viewBox="0 0 25 25" fill="none" xmlns="http://www.w3.org/2000/svg">
<path d="M24.6306 15.2018L23.2536 14.4135C21.7683 13.5632 21.7669 11.4374 23.2536 10.5865L24.6306 9.79824C24.9839 9.59587 25.1049 9.14803 24.9009 8.79784L21.9341 3.70235C21.7304 3.35236 21.2783 3.232 20.9249 3.43418L19.5478 4.22249C18.0627 5.07259 16.2057 4.01134 16.2057 2.30904V0.732422C16.2057 0.327873 15.875 0 15.4669 0H9.53306C9.12522 0 8.79433 0.327873 8.79433 0.732422V2.30904C8.79433 4.00963 6.93904 5.07355 5.45216 4.22249L4.07512 3.43418C3.72211 3.232 3.27002 3.35197 3.06591 3.70235L0.0990605 8.79784C-0.10486 9.14803 0.0161458 9.59606 0.369351 9.79824L1.74639 10.5865C3.23173 11.4368 3.23308 13.5626 1.74639 14.4135L0.369543 15.2018C0.0161458 15.4041 -0.10486 15.852 0.0990605 16.2022L3.06591 21.2976C3.26963 21.6476 3.72172 21.7682 4.07512 21.5658L5.45216 20.7775C6.93712 19.9272 8.79433 20.9885 8.79433 22.691V24.2676C8.79433 24.6721 9.12503 25 9.53306 25H15.4667C15.8748 25 16.2055 24.6721 16.2055 24.2676V22.691C16.2055 20.9908 18.0608 19.9263 19.5478 20.7775L20.9249 21.5658C21.2779 21.768 21.73 21.648 21.9339 21.2976L24.9009 16.2022C25.1049 15.852 24.9839 15.4041 24.6306 15.2018ZM21.0238 19.931L20.2866 19.5089C17.8163 18.0946 14.7282 19.8603 14.7282 22.691V23.5352H10.2718V22.691C10.2718 19.8627 7.18567 18.0935 4.71343 19.5089L3.97624 19.931L1.74793 16.1041L2.48512 15.682C4.95524 14.2681 4.95775 10.7334 2.48531 9.31797L1.74793 8.89587L3.97624 5.06897L4.71343 5.49107C7.18374 6.90536 10.2718 5.13973 10.2718 2.30904V1.46484H14.7282V2.30904C14.7282 5.13725 17.8141 6.90651 20.2866 5.49107L21.0238 5.06897L23.2521 8.89587L22.5149 9.31797C20.0448 10.7319 20.0423 14.2666 22.5147 15.682L23.2521 16.1041L21.0238 19.931Z" fill="#A1A6B9"/>
<path d="M12.5001 7.37305C9.64887 7.37305 7.32938 9.67293 7.32938 12.5C7.32938 15.3271 9.64887 17.627 12.5001 17.627C15.3511 17.627 17.6706 15.3271 17.6706 12.5C17.6706 9.67293 15.3511 7.37305 12.5001 7.37305ZM12.5001 16.1621C10.4636 16.1621 8.80684 14.5193 8.80684 12.5C8.80684 10.4807 10.4636 8.83789 12.5001 8.83789C14.5364 8.83789 16.1932 10.4807 16.1932 12.5C16.1932 14.5193 14.5364 16.1621 12.5001 16.1621Z" fill="#A1A6B9"/>
</svg>
