<svg width="50px" height="50px" viewBox="0 0 67 67" fill="none" xmlns="http://www.w3.org/2000/svg">
<circle cx="33.7561" cy="33.1523" r="33.1023" fill="#D6F3FF"/>
<path d="M40.6173 24.823H31.7984C31.1491 24.823 30.6226 25.3494 30.6226 25.9988C30.6226 26.6483 31.1491 27.1747 31.7984 27.1747H40.6173C41.2666 27.1747 41.7931 26.6483 41.7931 25.9988C41.7931 25.3494 41.2666 24.823 40.6173 24.823Z" fill="#2E4CB6"/>
<path d="M27.8085 25.1675C27.5899 24.9488 27.2866 24.823 26.9773 24.823C26.6681 24.823 26.3647 24.9488 26.146 25.1675C25.9273 25.3862 25.8015 25.6896 25.8015 25.9988C25.8015 26.3081 25.9272 26.6115 26.146 26.8302C26.3648 27.0489 26.6681 27.1747 26.9773 27.1747C27.2866 27.1747 27.5899 27.0489 27.8085 26.8302C28.0272 26.6115 28.1532 26.3081 28.1532 25.9988C28.1532 25.6896 28.0273 25.3862 27.8085 25.1675Z" fill="#2E4CB6"/>
<path d="M40.6172 29.9968H26.9773C26.328 29.9968 25.8015 30.5233 25.8015 31.1727C25.8015 31.8221 26.328 32.3485 26.9773 32.3485H40.6172C41.2665 32.3485 41.793 31.8221 41.793 31.1727C41.793 30.5233 41.2665 29.9968 40.6172 29.9968Z" fill="#2E4CB6"/>
<path d="M40.6172 35.1705H26.9773C26.328 35.1705 25.8015 35.6969 25.8015 36.3463C25.8015 36.9957 26.328 37.5222 26.9773 37.5222H40.6172C41.2665 37.5222 41.793 36.9957 41.793 36.3463C41.793 35.6969 41.2665 35.1705 40.6172 35.1705Z" fill="#2E4CB6"/>
<path d="M42.2635 19.2966H25.3313C22.0895 19.2966 19.452 21.934 19.452 25.1758V37.7574C19.452 40.774 21.7355 43.2673 24.6649 43.5991V46.6546C24.6649 47.1301 24.9515 47.5589 25.3908 47.741C25.5362 47.8013 25.6891 47.8306 25.8405 47.8306C26.1466 47.8306 26.4473 47.711 26.6722 47.4862L30.5216 43.6367H42.2635C45.5053 43.6367 48.1428 40.9992 48.1428 37.7574V25.1758C48.1428 21.934 45.5053 19.2966 42.2635 19.2966ZM45.7911 37.7574C45.7911 39.7025 44.2086 41.285 42.2635 41.285H30.0347C29.7228 41.285 29.4238 41.4089 29.2032 41.6294L27.0166 43.816V42.4608C27.0166 41.8114 26.4901 41.285 25.8408 41.285H25.3313C23.3862 41.285 21.8037 39.7025 21.8037 37.7574V25.1758C21.8037 23.2307 23.3862 21.6483 25.3313 21.6483H42.2635C44.2086 21.6483 45.7911 23.2307 45.7911 25.1758V37.7574Z" fill="#2E4CB6"/>
</svg>
