<svg width="50px" height="50px" viewBox="0 0 67 67" fill="none" xmlns="http://www.w3.org/2000/svg">
<circle cx="33.8252" cy="33.5621" r="33.1611" fill="#FFEBCC"/>
<g clip-path="url(#clip0)">
<path d="M47.4411 20.0214C47.1844 19.7634 46.8357 19.618 46.4717 19.6172L21.0771 19.5567C20.3198 19.555 19.7033 20.1678 19.7016 20.9257L19.6408 46.3206C19.6398 46.6847 19.7835 47.0339 20.0404 47.2919C20.2972 47.5499 20.6458 47.6953 21.0098 47.6961L38.0625 47.7368C38.2445 47.7372 38.4229 47.7015 38.5879 47.6336C38.7531 47.5657 38.9048 47.4657 39.0338 47.3372L47.3952 39.015C47.6533 38.7583 47.7987 38.4096 47.7995 38.0456L47.8404 20.9926C47.8416 20.6289 47.6978 20.2794 47.4411 20.0214ZM39.4462 43.0546L39.4549 39.3981L43.1112 39.4068L39.4462 43.0546ZM45.0583 36.6665L38.0891 36.6501C37.332 36.6484 36.7153 37.2612 36.7135 38.0191L36.697 44.989L22.3885 44.9549L22.4428 22.3045L45.0929 22.3584L45.0583 36.6665Z" fill="#FFA31F"/>
<path d="M39.0818 29.7084L37.1455 27.7634L31.755 33.1293L29.5558 30.9199L27.6106 32.8558L31.7457 37.0109L39.0818 29.7084Z" fill="#FFA31F"/>
</g>
<defs>
<clipPath id="clip0">
<rect x="9.68793" y="22.4033" width="35.9245" height="35.9245" transform="rotate(-22.363 9.68793 22.4033)" fill="white"/>
</clipPath>
</defs>
</svg>
