<svg width="50px" height="50px" viewBox="0 0 68 67" fill="none" xmlns="http://www.w3.org/2000/svg">
<circle cx="33.8533" cy="33.178" r="33.1611" fill="#FFE3E3"/>
<path d="M42.014 18.57H25.6925C22.1318 18.57 19.2453 21.4566 19.2453 25.0173V41.3388C19.2453 44.8995 22.1318 47.786 25.6925 47.786H42.014C45.5747 47.786 48.4613 44.8995 48.4613 41.3388V25.0173C48.4613 21.4566 45.5747 18.57 42.014 18.57ZM46.4478 41.3388C46.4478 43.7875 44.4627 45.7725 42.014 45.7725H25.6925C23.2438 45.7725 21.2588 43.7875 21.2588 41.3388V25.0173C21.2588 22.5686 23.2438 20.5835 25.6925 20.5835H42.014C44.4627 20.5835 46.4478 22.5686 46.4478 25.0173V41.3388Z" fill="#FF6E35" stroke="#FF6E35" stroke-width="0.2"/>
<path d="M28.4128 24.9172H26.5993C26.0433 24.9172 25.5926 25.3679 25.5926 25.924V27.7375C25.5926 28.2935 26.0433 28.7442 26.5993 28.7442H28.4128C28.9689 28.7442 29.4196 28.2935 29.4196 27.7375V25.924C29.4196 25.3679 28.9689 24.9172 28.4128 24.9172Z" fill="#FF6E35" stroke="#FF6E35" stroke-width="0.2"/>
<path d="M28.4128 31.2646H26.5993C26.0433 31.2646 25.5926 31.7153 25.5926 32.2713V34.0848C25.5926 34.6408 26.0433 35.0916 26.5993 35.0916H28.4128C28.9689 35.0916 29.4196 34.6408 29.4196 34.0848V32.2713C29.4196 31.7153 28.9689 31.2646 28.4128 31.2646Z" fill="#FF6E35" stroke="#FF6E35" stroke-width="0.2"/>
<path d="M28.4128 37.6117H26.5993C26.0433 37.6117 25.5926 38.0624 25.5926 38.6185V40.432C25.5926 40.988 26.0433 41.4387 26.5993 41.4387H28.4128C28.9689 41.4387 29.4196 40.988 29.4196 40.432V38.6185C29.4196 38.0624 28.9689 37.6117 28.4128 37.6117Z" fill="#FF6E35" stroke="#FF6E35" stroke-width="0.2"/>
<path d="M42.114 25.924V25.824H42.014H31.1331H31.0331V25.924V27.7375V27.8375H31.1331H42.014H42.114V27.7375V25.924Z" fill="#FF6E35" stroke="#FF6E35" stroke-width="0.2"/>
<path d="M42.114 32.2712V32.1712H42.014H31.1331H31.0331V32.2712V34.0847V34.1847H31.1331H42.014H42.114V34.0847V32.2712Z" fill="#FF6E35" stroke="#FF6E35" stroke-width="0.2"/>
<path d="M42.114 38.6185V38.5185H42.014H31.1331H31.0331V38.6185V40.432V40.532H31.1331H42.014H42.114V40.432V38.6185Z" fill="#FF6E35" stroke="#FF6E35" stroke-width="0.2"/>
</svg>
