<svg width="50px" height="50px" viewBox="0 0 68 68" fill="none" xmlns="http://www.w3.org/2000/svg">
<circle cx="33.8533" cy="33.9439" r="33.1611" fill="#D6F3FF"/>
<path d="M42.6239 32.1897C43.3691 32.1897 43.9733 31.5856 43.9733 30.8404C43.9733 30.0952 43.3691 29.4911 42.6239 29.4911C41.8787 29.4911 41.2746 30.0952 41.2746 30.8404C41.2746 31.5856 41.8787 32.1897 42.6239 32.1897Z" fill="#13B7F6"/>
<path d="M45.7274 19.3712H43.9733V18.0219C43.9733 17.2766 43.3692 16.6725 42.624 16.6725C41.8787 16.6725 41.2746 17.2766 41.2746 18.0219V19.3712H35.1352V18.0219C35.1352 17.2766 34.5311 16.6725 33.7859 16.6725C33.0406 16.6725 32.4365 17.2766 32.4365 18.0219V19.3712H26.3645V18.0219C26.3645 17.2766 25.7605 16.6725 25.0152 16.6725C24.27 16.6725 23.6659 17.2766 23.6659 18.0219V19.3712H21.9792C19.0031 19.3712 16.5819 21.7924 16.5819 24.7685V45.8181C16.5819 48.7941 19.0031 51.2154 21.9792 51.2154H32.3016C33.0468 51.2154 33.6509 50.6113 33.6509 49.866C33.6509 49.1208 33.0468 48.5167 32.3016 48.5167H21.9792C20.4912 48.5167 19.2806 47.3061 19.2806 45.8181V24.7685C19.2806 23.2805 20.4912 22.0699 21.9792 22.0699H23.6659V23.4192C23.6659 24.1644 24.27 24.7685 25.0152 24.7685C25.7605 24.7685 26.3645 24.1644 26.3645 23.4192V22.0699H32.4365V23.4192C32.4365 24.1644 33.0406 24.7685 33.7859 24.7685C34.5311 24.7685 35.1352 24.1644 35.1352 23.4192V22.0699H41.2746V23.4192C41.2746 24.1644 41.8787 24.7685 42.624 24.7685C43.3692 24.7685 43.9733 24.1644 43.9733 23.4192V22.0699H45.7274C47.2155 22.0699 48.4261 23.2805 48.4261 24.7685V32.4597C48.4261 33.2049 49.0302 33.809 49.7754 33.809C50.5206 33.809 51.1247 33.2049 51.1247 32.4597V24.7685C51.1247 21.7924 48.7035 19.3712 45.7274 19.3712Z" fill="#13B7F6"/>
<path d="M42.9613 34.8885C38.4599 34.8885 34.7979 38.5506 34.7979 43.052C34.7979 47.5534 38.4599 51.2154 42.9613 51.2154C47.4627 51.2154 51.1247 47.5534 51.1247 43.052C51.1247 38.5506 47.4627 34.8885 42.9613 34.8885ZM42.9613 48.5168C39.948 48.5168 37.4965 46.0653 37.4965 43.052C37.4965 40.0387 39.948 37.5872 42.9613 37.5872C45.9745 37.5872 48.4261 40.0387 48.4261 43.052C48.4261 46.0653 45.9745 48.5168 42.9613 48.5168Z" fill="#13B7F6"/>
<path d="M44.9178 41.7025H44.3106V40.2857C44.3106 39.5405 43.7065 38.9364 42.9613 38.9364C42.216 38.9364 41.6119 39.5405 41.6119 40.2857V43.0519C41.6119 43.7971 42.216 44.4012 42.9613 44.4012H44.9178C45.663 44.4012 46.2671 43.7971 46.2671 43.0519C46.2671 42.3066 45.663 41.7025 44.9178 41.7025Z" fill="#13B7F6"/>
<path d="M36.7544 32.1897C37.4996 32.1897 38.1037 31.5856 38.1037 30.8404C38.1037 30.0952 37.4996 29.4911 36.7544 29.4911C36.0091 29.4911 35.405 30.0952 35.405 30.8404C35.405 31.5856 36.0091 32.1897 36.7544 32.1897Z" fill="#13B7F6"/>
<path d="M30.8848 38.0594C31.63 38.0594 32.2341 37.4553 32.2341 36.71C32.2341 35.9648 31.63 35.3607 30.8848 35.3607C30.1396 35.3607 29.5355 35.9648 29.5355 36.71C29.5355 37.4553 30.1396 38.0594 30.8848 38.0594Z" fill="#13B7F6"/>
<path d="M25.0152 32.1897C25.7604 32.1897 26.3646 31.5856 26.3646 30.8404C26.3646 30.0952 25.7604 29.4911 25.0152 29.4911C24.27 29.4911 23.6659 30.0952 23.6659 30.8404C23.6659 31.5856 24.27 32.1897 25.0152 32.1897Z" fill="#13B7F6"/>
<path d="M25.0152 38.0594C25.7604 38.0594 26.3646 37.4553 26.3646 36.71C26.3646 35.9648 25.7604 35.3607 25.0152 35.3607C24.27 35.3607 23.6659 35.9648 23.6659 36.71C23.6659 37.4553 24.27 38.0594 25.0152 38.0594Z" fill="#13B7F6"/>
<path d="M25.0152 43.929C25.7604 43.929 26.3646 43.3249 26.3646 42.5797C26.3646 41.8345 25.7604 41.2303 25.0152 41.2303C24.27 41.2303 23.6659 41.8345 23.6659 42.5797C23.6659 43.3249 24.27 43.929 25.0152 43.929Z" fill="#13B7F6"/>
<path d="M30.8848 43.929C31.63 43.929 32.2341 43.3249 32.2341 42.5797C32.2341 41.8345 31.63 41.2303 30.8848 41.2303C30.1396 41.2303 29.5355 41.8345 29.5355 42.5797C29.5355 43.3249 30.1396 43.929 30.8848 43.929Z" fill="#13B7F6"/>
<path d="M30.8848 32.1897C31.63 32.1897 32.2341 31.5856 32.2341 30.8404C32.2341 30.0952 31.63 29.4911 30.8848 29.4911C30.1396 29.4911 29.5355 30.0952 29.5355 30.8404C29.5355 31.5856 30.1396 32.1897 30.8848 32.1897Z" fill="#13B7F6"/>
</svg>
