<svg width="120" height="68" viewBox="0 0 171 68" fill="none" xmlns="http://www.w3.org/2000/svg">
<path d="M25.123 21.42C24.103 21.42 23.163 21.38 22.303 21.3C21.443 21.22 20.643 21.09 19.903 20.91C19.183 20.71 18.493 20.45 17.833 20.13V15.03C18.833 15.81 19.923 16.39 21.103 16.77C22.283 17.13 23.353 17.31 24.313 17.31C25.073 17.31 25.683 17.17 26.143 16.89C26.603 16.61 26.833 16.13 26.833 15.45C26.833 14.99 26.603 14.62 26.143 14.34C25.703 14.04 25.103 13.78 24.343 13.56C23.603 13.32 22.763 13.04 21.823 12.72C21.263 12.52 20.713 12.28 20.173 12C19.653 11.72 19.173 11.37 18.733 10.95C18.313 10.53 17.973 10.01 17.713 9.39C17.473 8.77 17.353 8.02 17.353 7.14C17.353 6.26 17.513 5.42 17.833 4.62C18.173 3.82 18.673 3.11 19.333 2.49C19.993 1.87 20.833 1.39 21.853 1.05C22.873 0.689999 24.063 0.509999 25.423 0.509999C26.243 0.509999 26.983 0.559999 27.643 0.659999C28.303 0.739999 28.923 0.879999 29.503 1.08C30.103 1.28 30.703 1.53 31.303 1.83V6.99C30.863 6.61 30.343 6.25 29.743 5.91C29.163 5.57 28.553 5.28 27.913 5.04C27.273 4.8 26.633 4.66 25.993 4.62C25.453 4.6 24.943 4.65 24.463 4.77C24.003 4.87 23.633 5.06 23.353 5.34C23.073 5.62 22.933 6 22.933 6.48C22.933 6.98 23.093 7.37 23.413 7.65C23.733 7.93 24.183 8.17 24.763 8.37C25.363 8.57 26.023 8.77 26.743 8.97C27.583 9.21 28.343 9.48 29.023 9.78C29.723 10.08 30.323 10.45 30.823 10.89C31.323 11.33 31.713 11.87 31.993 12.51C32.273 13.13 32.413 13.89 32.413 14.79C32.413 16.07 32.113 17.21 31.513 18.21C30.913 19.21 30.063 20 28.963 20.58C27.883 21.14 26.603 21.42 25.123 21.42ZM35.5047 21V6.03H40.4847L40.5447 21H35.5047ZM35.4447 3.84V0.149998H40.5447V3.84H35.4447ZM50.0816 21.45C48.7416 21.37 47.5716 21.06 46.5716 20.52C45.5916 19.96 44.8216 19.14 44.2616 18.06C43.7216 16.96 43.4516 15.56 43.4516 13.86C43.4516 12.2 43.6516 10.82 44.0516 9.72C44.4516 8.6 45.0316 7.72 45.7916 7.08C46.5516 6.44 47.4816 5.99 48.5816 5.73C49.6816 5.45 50.9316 5.31 52.3316 5.31C53.6716 5.31 54.8116 5.48 55.7516 5.82C56.7116 6.14 57.4416 6.61 57.9416 7.23C58.4616 7.85 58.7216 8.6 58.7216 9.48V21.09C58.7216 22.25 58.5316 23.25 58.1516 24.09C57.7916 24.93 57.2516 25.63 56.5316 26.19C55.8316 26.75 54.9916 27.16 54.0116 27.42C53.0316 27.7 51.9316 27.84 50.7116 27.84C49.2916 27.84 48.0816 27.74 47.0816 27.54C46.0816 27.34 45.3316 27.1 44.8316 26.82V22.44C45.1316 22.6 45.5816 22.78 46.1816 22.98C46.8016 23.2 47.4916 23.38 48.2516 23.52C49.0316 23.68 49.8016 23.76 50.5616 23.76C51.4016 23.76 52.0616 23.63 52.5416 23.37C53.0216 23.13 53.3616 22.79 53.5616 22.35C53.7616 21.93 53.8616 21.43 53.8616 20.85V18.36L54.7916 18.96C54.4916 19.46 54.1316 19.9 53.7116 20.28C53.2916 20.64 52.7816 20.92 52.1816 21.12C51.6016 21.34 50.9016 21.45 50.0816 21.45ZM51.4916 17.82C51.9716 17.82 52.4016 17.77 52.7816 17.67C53.1816 17.57 53.5416 17.42 53.8616 17.22V10.62C53.8616 10.22 53.7516 9.92 53.5316 9.72C53.3316 9.52 53.0616 9.39 52.7216 9.33C52.3816 9.25 52.0316 9.21 51.6716 9.21C50.8716 9.21 50.2316 9.39 49.7516 9.75C49.2716 10.09 48.9216 10.59 48.7016 11.25C48.4816 11.91 48.3716 12.68 48.3716 13.56C48.3716 14.88 48.6716 15.92 49.2716 16.68C49.8716 17.44 50.6116 17.82 51.4916 17.82ZM62.2513 7.08C62.6113 6.88 63.1113 6.68 63.7513 6.48C64.3913 6.28 65.1013 6.1 65.8813 5.94C66.6613 5.76 67.4513 5.62 68.2513 5.52C69.0513 5.4 69.7813 5.34 70.4413 5.34C71.7813 5.34 72.9413 5.5 73.9213 5.82C74.9013 6.14 75.6513 6.69 76.1713 7.47C76.7113 8.25 76.9813 9.32 76.9813 10.68V21H72.0313V11.82C72.0313 11.42 71.9713 11.07 71.8513 10.77C71.7513 10.45 71.5913 10.19 71.3713 9.99C71.1513 9.79 70.8713 9.64 70.5313 9.54C70.1913 9.44 69.7813 9.39 69.3013 9.39C68.9013 9.39 68.4913 9.45 68.0713 9.57C67.6513 9.67 67.3713 9.78 67.2313 9.9V21H62.2513V7.08ZM89.1201 21V0.989998H94.5801V21H89.1201ZM98.5209 7.08C98.8809 6.88 99.3809 6.68 100.021 6.48C100.661 6.28 101.371 6.1 102.151 5.94C102.931 5.76 103.721 5.62 104.521 5.52C105.321 5.4 106.051 5.34 106.711 5.34C108.051 5.34 109.211 5.5 110.191 5.82C111.171 6.14 111.921 6.69 112.441 7.47C112.981 8.25 113.251 9.32 113.251 10.68V21H108.301V11.82C108.301 11.42 108.241 11.07 108.121 10.77C108.021 10.45 107.861 10.19 107.641 9.99C107.421 9.79 107.141 9.64 106.801 9.54C106.461 9.44 106.051 9.39 105.571 9.39C105.171 9.39 104.761 9.45 104.341 9.57C103.921 9.67 103.641 9.78 103.501 9.9V21H98.5209V7.08ZM131.78 21.66C129.88 21.66 128.48 21.23 127.58 20.37C126.68 19.51 126.23 18.29 126.23 16.71V9.51H124.1V5.76H126.23V1.62H131.45V5.76H134.69V9.51H131.45V16.17C131.45 16.61 131.56 16.94 131.78 17.16C132 17.38 132.34 17.49 132.8 17.49C133.08 17.49 133.4 17.43 133.76 17.31C134.12 17.17 134.43 17 134.69 16.8V21C134.21 21.26 133.72 21.43 133.22 21.51C132.72 21.61 132.24 21.66 131.78 21.66ZM144.915 21.45C142.295 21.45 140.325 20.77 139.005 19.41C137.705 18.05 137.055 16.01 137.055 13.29C137.055 10.37 137.715 8.3 139.035 7.08C140.355 5.84 142.315 5.22 144.915 5.22C146.635 5.22 148.085 5.5 149.265 6.06C150.445 6.6 151.335 7.47 151.935 8.67C152.555 9.85 152.865 11.39 152.865 13.29C152.865 15.99 152.175 18.03 150.795 19.41C149.435 20.77 147.475 21.45 144.915 21.45ZM144.915 17.52C145.555 17.52 146.095 17.37 146.535 17.07C146.995 16.75 147.345 16.28 147.585 15.66C147.825 15.04 147.945 14.25 147.945 13.29C147.945 12.19 147.825 11.34 147.585 10.74C147.345 10.12 146.995 9.69 146.535 9.45C146.095 9.21 145.555 9.09 144.915 9.09C144.255 9.09 143.705 9.22 143.265 9.48C142.825 9.72 142.495 10.14 142.275 10.74C142.075 11.34 141.975 12.19 141.975 13.29C141.975 14.77 142.215 15.85 142.695 16.53C143.175 17.19 143.915 17.52 144.915 17.52Z" fill="#3B3B3B"/>
<path d="M0.493438 67V40.32H6.49344L19.6134 57.72L17.4134 62.36V40.32H24.0534V67H18.7734L5.57344 50.04L7.13344 46.76V67H0.493438ZM38.6378 67.6C36.5578 67.6 34.7178 67.1867 33.1178 66.36C31.5445 65.5067 30.3178 64.3067 29.4378 62.76C28.5578 61.1867 28.1178 59.3333 28.1178 57.2C28.1178 53.6533 29.0111 50.8933 30.7978 48.92C32.5845 46.9467 35.1578 45.96 38.5178 45.96C40.7578 45.96 42.5711 46.44 43.9578 47.4C45.3445 48.36 46.3711 49.7867 47.0378 51.68C47.7045 53.5733 48.0245 55.8933 47.9978 58.64H32.7178L31.9178 54.6H42.3978L41.5978 56.76C41.5711 54.6 41.2911 53.0933 40.7578 52.24C40.2511 51.36 39.3978 50.92 38.1978 50.92C37.5578 50.92 36.9711 51.1067 36.4378 51.48C35.9045 51.8267 35.4778 52.4 35.1578 53.2C34.8645 54 34.7178 55.08 34.7178 56.44C34.7178 58.28 35.1445 59.6933 35.9978 60.68C36.8778 61.64 38.3178 62.12 40.3178 62.12C41.0378 62.12 41.7578 62.04 42.4778 61.88C43.1978 61.6933 43.8645 61.48 44.4778 61.24C45.1178 61 45.6378 60.8133 46.0378 60.68V66.28C45.1045 66.6267 44.0378 66.9333 42.8378 67.2C41.6645 67.4667 40.2645 67.6 38.6378 67.6ZM61.215 67.6C57.7217 67.6 55.095 66.6933 53.335 64.88C51.6017 63.0667 50.735 60.3467 50.735 56.72C50.735 52.8267 51.615 50.0667 53.375 48.44C55.135 46.7867 57.7483 45.96 61.215 45.96C63.5083 45.96 65.4417 46.3333 67.015 47.08C68.5883 47.8 69.775 48.96 70.575 50.56C71.4017 52.1333 71.815 54.1867 71.815 56.72C71.815 60.32 70.895 63.04 69.055 64.88C67.2417 66.6933 64.6283 67.6 61.215 67.6ZM61.215 62.36C62.0683 62.36 62.7883 62.16 63.375 61.76C63.9883 61.3333 64.455 60.7067 64.775 59.88C65.095 59.0533 65.255 58 65.255 56.72C65.255 55.2533 65.095 54.12 64.775 53.32C64.455 52.4933 63.9883 51.92 63.375 51.6C62.7883 51.28 62.0683 51.12 61.215 51.12C60.335 51.12 59.6017 51.2933 59.015 51.64C58.4283 51.96 57.9883 52.52 57.695 53.32C57.4283 54.12 57.295 55.2533 57.295 56.72C57.295 58.6933 57.615 60.1333 58.255 61.04C58.895 61.92 59.8817 62.36 61.215 62.36Z" fill="#23B0FF"/>
<path d="M95.0041 53.24V67H88.3641V54.76C88.3641 54.2267 88.2974 53.76 88.1641 53.36C88.0307 52.9333 87.8174 52.5867 87.5241 52.32C87.2307 52.0533 86.8574 51.8533 86.4041 51.72C85.9507 51.5867 85.4041 51.52 84.7641 51.52C84.2041 51.52 83.6974 51.6 83.2441 51.76C82.8174 51.8933 82.5107 52.04 82.3241 52.2V67H75.6841V48.44C76.1641 48.1733 76.8307 47.9067 77.6841 47.64C78.5374 47.3733 79.4841 47.1333 80.5241 46.92C81.5641 46.68 82.6174 46.4933 83.6841 46.36C84.7507 46.2 85.7241 46.12 86.6041 46.12C88.3907 46.12 89.9107 46.3333 91.1641 46.76C92.4174 47.1867 93.3641 47.92 94.0041 48.96C94.6707 50 95.0041 51.4267 95.0041 53.24ZM88.3641 49.92C89.1907 49.1733 90.2174 48.52 91.4441 47.96C92.6974 47.4 94.0041 46.96 95.3641 46.64C96.7241 46.2933 97.9907 46.12 99.1641 46.12C100.951 46.12 102.471 46.3333 103.724 46.76C104.977 47.1867 105.924 47.92 106.564 48.96C107.231 50 107.564 51.4267 107.564 53.24V67H100.924V54.76C100.924 54.2267 100.857 53.76 100.724 53.36C100.591 52.9333 100.377 52.5867 100.084 52.32C99.7907 52.0533 99.4174 51.8533 98.9641 51.72C98.5107 51.5867 97.9641 51.52 97.3241 51.52C96.7641 51.52 96.2574 51.6 95.8041 51.76C95.3774 51.92 95.0707 52.1067 94.8841 52.32L88.3641 49.92ZM121.958 67.6C119.878 67.6 118.038 67.1867 116.438 66.36C114.865 65.5067 113.638 64.3067 112.758 62.76C111.878 61.1867 111.438 59.3333 111.438 57.2C111.438 53.6533 112.331 50.8933 114.118 48.92C115.905 46.9467 118.478 45.96 121.838 45.96C124.078 45.96 125.891 46.44 127.278 47.4C128.665 48.36 129.691 49.7867 130.358 51.68C131.025 53.5733 131.345 55.8933 131.318 58.64H116.038L115.238 54.6H125.718L124.918 56.76C124.891 54.6 124.611 53.0933 124.078 52.24C123.571 51.36 122.718 50.92 121.518 50.92C120.878 50.92 120.291 51.1067 119.758 51.48C119.225 51.8267 118.798 52.4 118.478 53.2C118.185 54 118.038 55.08 118.038 56.44C118.038 58.28 118.465 59.6933 119.318 60.68C120.198 61.64 121.638 62.12 123.638 62.12C124.358 62.12 125.078 62.04 125.798 61.88C126.518 61.6933 127.185 61.48 127.798 61.24C128.438 61 128.958 60.8133 129.358 60.68V66.28C128.425 66.6267 127.358 66.9333 126.158 67.2C124.985 67.4667 123.585 67.6 121.958 67.6ZM144.575 67.6C142.495 67.6 140.655 67.1867 139.055 66.36C137.482 65.5067 136.255 64.3067 135.375 62.76C134.495 61.1867 134.055 59.3333 134.055 57.2C134.055 53.6533 134.949 50.8933 136.735 48.92C138.522 46.9467 141.095 45.96 144.455 45.96C146.695 45.96 148.509 46.44 149.895 47.4C151.282 48.36 152.309 49.7867 152.975 51.68C153.642 53.5733 153.962 55.8933 153.935 58.64H138.655L137.855 54.6H148.335L147.535 56.76C147.509 54.6 147.229 53.0933 146.695 52.24C146.189 51.36 145.335 50.92 144.135 50.92C143.495 50.92 142.909 51.1067 142.375 51.48C141.842 51.8267 141.415 52.4 141.095 53.2C140.802 54 140.655 55.08 140.655 56.44C140.655 58.28 141.082 59.6933 141.935 60.68C142.815 61.64 144.255 62.12 146.255 62.12C146.975 62.12 147.695 62.04 148.415 61.88C149.135 61.6933 149.802 61.48 150.415 61.24C151.055 61 151.575 60.8133 151.975 60.68V66.28C151.042 66.6267 149.975 66.9333 148.775 67.2C147.602 67.4667 146.202 67.6 144.575 67.6ZM166.553 67.88C164.019 67.88 162.153 67.3067 160.953 66.16C159.753 65.0133 159.153 63.3867 159.153 61.28V51.68H156.313V46.68H159.153V41.16H166.113V46.68H170.433V51.68H166.113V60.56C166.113 61.1467 166.259 61.5867 166.553 61.88C166.846 62.1733 167.299 62.32 167.913 62.32C168.286 62.32 168.713 62.24 169.193 62.08C169.673 61.8933 170.086 61.6667 170.433 61.4V67C169.793 67.3467 169.139 67.5733 168.473 67.68C167.806 67.8133 167.166 67.88 166.553 67.88Z" fill="#13B7F6"/>
</svg>
